<svg xmlns="http://www.w3.org/2000/svg" xmlns:xlink="http://www.w3.org/1999/xlink" xmlns:svgjs="http://svgjs.dev/svgjs" version="1.1" viewBox="3.21 0 992.36 137.35"><g transform="matrix(1,0,0,1,-0.6060518296399096,-0.3225919065113061)"><svg xmlns="http://www.w3.org/2000/svg" xmlns:xlink="http://www.w3.org/1999/xlink" viewBox="0 0 396 55" data-background-color="#406882" preserveAspectRatio="xMidYMid meet" height="138" width="1000"><g id="tight-bounds" transform="matrix(1,0,0,1,0.239996613312087,0.12856923810232956)"><svg viewBox="0 0 395.52 54.74286152379533" height="54.74286152379533" width="395.52"><g><svg viewBox="0 0 424.9363531332482 58.814299999999996" height="54.74286152379533" width="395.52"><g><svg viewBox="0 0 424.9363531332482 58.814299999999996" height="58.814299999999996" width="424.9363531332482"><g id="textblocktransform"><svg viewBox="0 0 424.9363531332482 58.814299999999996" height="58.814299999999996" width="424.9363531332482" id="textblock"><g><svg viewBox="0 0 424.9363531332482 58.814299999999996" height="58.814299999999996" width="424.9363531332482"><g><svg><g/><g/></svg></g><g><svg><g><svg/></g><g/></svg></g><g id="text-0"><svg viewBox="0 0 424.9363531332482 58.814299999999996" height="58.814299999999996" width="424.9363531332482"><g transform="matrix(1,0,0,1,0,11.607149999999997)"><svg width="97.65" viewBox="3.9000000953674316 -35.04999923706055 97.63999938964844 35.04999923706055" height="35.050000000000004" data-palette-color="#ffffff"><path d="M3.9 0L3.9-35 15.95-35Q20.85-35 23.23-31.95 25.6-28.9 25.6-23.95L25.6-23.95Q25.6-20.8 25.05-18.18 24.5-15.55 22.45-13.53 20.4-11.5 16.3-11.5L16.3-11.5 7.5-11.5 7.5 0 3.9 0ZM15.85-15Q18.6-15 19.98-16.38 21.35-17.75 21.68-19.55 22-21.35 22-23.6L22-23.6Q22-27.75 20.35-29.63 18.7-31.5 15.65-31.5L15.65-31.5 7.5-31.5 7.5-15 15.85-15ZM31.25 0L31.25-35 47.95-35 47.95-31.55 34.85-31.55 34.85-20.65 43.6-20.65 42.45-17.15 34.85-17.15 34.85-3.25 47.85-3.25 47.85 0 31.25 0ZM72.39 0L68.94-11.3 58.55-11.3 55.24 0 51.34 0 61.64-35 65.8-35 76.44 0 72.39 0ZM63.7-29.2L59.49-15 68.05-15 63.7-29.2ZM97.14 0L86.39-16.25 84.64-13.45 84.64 0 80.89 0 80.89-35.05 84.64-35.05 84.64-19.75 94.89-35.05 99.14-35.05 88.64-19.55 101.54 0 97.14 0Z" opacity="1" transform="matrix(1,0,0,1,0,0)" fill="#ffffff" class="undefined-p-0"/></svg></g><g><svg xmlns="http://www.w3.org/2000/svg" xmlns:xlink="http://www.w3.org/1999/xlink" version="1.1" x="111.5357" y="0" viewBox="4.9670000076293945 5 90.0009994506836 90" enable-background="new 0 0 100 100" xml:space="preserve" height="58.814299999999996" width="58.81495313324822" class="icon-s-0" data-fill-palette-color="accent" id="s-0"><g fill="#ffffff" data-fill-palette-color="accent"><polygon points="81.588,69.219 76.042,77.733 49.901,5 30.566,58.797 24.486,43.546 4.967,95 17.555,95 45,95 64.794,95 82.249,95    94.968,95  " fill="#ffffff" data-fill-palette-color="accent"/></g></svg></g><g transform="matrix(1,0,0,1,184.2363531332482,10.857149999999997)"><svg width="240.7" viewBox="3.299999952316284 -35.79999923706055 240.67999267578125 36.349998474121094" height="36.35" data-palette-color="#ffffff"><path d="M21.35-1.15Q16.9 0.5 13.05 0.5L13.05 0.5Q8.7 0.5 6-1.8 3.3-4.1 3.3-9.15L3.3-9.15 3.3-25.2Q3.3-29 4.38-30.95 5.45-32.9 7.65-34.25L7.65-34.25Q9.85-35.5 13.05-35.5L13.05-35.5Q16.95-35.5 20.1-33.85L20.1-33.85 19.05-31Q16.35-32 13.8-32L13.8-32Q11.05-32 8.97-30.6 6.9-29.2 6.9-25.65L6.9-25.65 6.9-9.25Q6.9-6.1 8.65-4.55 10.4-3 13.6-3L13.6-3Q16.7-3 20.65-4.35L20.65-4.35 21.35-1.15ZM45.85-9.25Q45.85-4.2 42.77-1.83 39.7 0.55 35.4 0.55L35.4 0.55Q32.7 0.55 30.3-0.43 27.9-1.4 26.37-3.6 24.85-5.8 24.85-9.25L24.85-9.25 24.85-25.35Q24.85-30.5 27.67-33.15 30.5-35.8 35.45-35.8L35.45-35.8Q40.4-35.8 43.12-33 45.85-30.2 45.85-25.3L45.85-25.3 45.85-9.25ZM42.25-25.1Q42.25-28.55 40.47-30.35 38.7-32.15 35.35-32.15L35.35-32.15Q32-32.15 30.22-30.38 28.45-28.6 28.45-25.1L28.45-25.1 28.45-9.55Q28.45-6.35 30.35-4.67 32.25-3 35.35-3L35.35-3Q38.45-3 40.35-4.67 42.25-6.35 42.25-9.65L42.25-9.65 42.25-25.1ZM74 0L56.65-28 56.65 0 53.05 0 53.05-35 56.65-35 74-7.05 74-35 77.65-35 77.65 0 74 0ZM85.54 0L85.54-35.05 94.94-35.05Q100.59-35.05 103.57-31.95 106.54-28.85 106.54-23.7L106.54-23.7 106.54-10Q106.54 0 95.94 0L95.94 0 85.54 0ZM102.94-24.2Q102.94-27.95 100.77-29.78 98.59-31.6 95.44-31.6L95.44-31.6 89.14-31.6 89.14-3.25 95.14-3.25Q98.49-3.25 100.72-4.5 102.94-5.75 102.94-9.5L102.94-9.5 102.94-24.2ZM116.94 0L116.94-31.6 113.64-31.7 113.64-35 120.54-35 120.54 0 116.94 0ZM132.49 0L132.49-31.6 124.39-31.6 124.39-35 144.49-35 144.49-31.6 136.09-31.6 136.09 0 132.49 0ZM150.99 0L150.99-31.6 147.69-31.7 147.69-35 154.59-35 154.59 0 150.99 0ZM182.58-9.25Q182.58-4.2 179.51-1.83 176.43 0.55 172.13 0.55L172.13 0.55Q169.43 0.55 167.03-0.43 164.63-1.4 163.11-3.6 161.58-5.8 161.58-9.25L161.58-9.25 161.58-25.35Q161.58-30.5 164.41-33.15 167.23-35.8 172.18-35.8L172.18-35.8Q177.13-35.8 179.86-33 182.58-30.2 182.58-25.3L182.58-25.3 182.58-9.25ZM178.98-25.1Q178.98-28.55 177.21-30.35 175.43-32.15 172.08-32.15L172.08-32.15Q168.73-32.15 166.96-30.38 165.18-28.6 165.18-25.1L165.18-25.1 165.18-9.55Q165.18-6.35 167.08-4.67 168.98-3 172.08-3L172.08-3Q175.18-3 177.08-4.67 178.98-6.35 178.98-9.65L178.98-9.65 178.98-25.1ZM210.73 0L193.38-28 193.38 0 189.78 0 189.78-35 193.38-35 210.73-7.05 210.73-35 214.38-35 214.38 0 210.73 0ZM223.98-9.15Q224.13-7.55 225.15-6.13 226.18-4.7 227.93-3.83 229.68-2.95 231.98-2.95L231.98-2.95Q235.53-2.95 237.8-4.58 240.08-6.2 240.08-9.3L240.08-9.3Q240.08-11.5 238.88-12.98 237.68-14.45 235.93-15.33 234.18-16.2 231.13-17.35L231.13-17.35Q227.88-18.55 225.88-19.58 223.88-20.6 222.5-22.38 221.13-24.15 221.13-26.9L221.13-26.9Q221.13-29.1 222.38-31.08 223.63-33.05 226.15-34.27 228.68-35.5 232.38-35.5L232.38-35.5Q234.83-35.5 236.43-35.15 238.03-34.8 239.68-34L239.68-34 238.58-30.6Q235.48-31.95 232.48-31.95L232.48-31.95Q228.93-31.95 226.9-30.53 224.88-29.1 224.93-26.65L224.93-26.65Q224.93-25.15 225.98-24.08 227.03-23 228.58-22.25 230.13-21.5 232.78-20.55L232.78-20.55Q236.33-19.25 238.58-18.07 240.83-16.9 242.4-14.83 243.98-12.75 243.98-9.65L243.98-9.65Q243.98-5.05 241.05-2.25 238.13 0.55 232.03 0.55L232.03 0.55Q228.33 0.55 225.7-0.83 223.08-2.2 221.7-4.38 220.33-6.55 220.23-8.9L220.23-8.9 223.98-9.15Z" opacity="1" transform="matrix(1,0,0,1,0,0)" fill="#ffffff" class="undefined-p-1"/></svg></g></svg></g></svg></g></svg></g></svg></g></svg></g><defs/></svg><rect width="395.52" height="54.74286152379533" fill="none" stroke="none" visibility="hidden"/></g></svg></g></svg>